<?xml version="1.0" encoding="UTF-8" standalone="no"?>
<svg
   xmlns:dc="http://purl.org/dc/elements/1.1/"
   xmlns:cc="http://creativecommons.org/ns#"
   xmlns:rdf="http://www.w3.org/1999/02/22-rdf-syntax-ns#"
   xmlns:svg="http://www.w3.org/2000/svg"
   xmlns="http://www.w3.org/2000/svg"
   xmlns:sodipodi="http://sodipodi.sourceforge.net/DTD/sodipodi-0.dtd"
   xmlns:inkscape="http://www.inkscape.org/namespaces/inkscape"
   inkscape:version="1.0 (1.0+r73+1)"
   height="385"
   width="768"
   sodipodi:docname="illustration.svg"
   version="1.1"
   viewBox="0 0 768.00003 385.00001"
   data-name="Capa 1"
   id="Capa_1">
  <metadata
     id="metadata125">
    <rdf:RDF>
      <cc:Work
         rdf:about="">
        <dc:format>image/svg+xml</dc:format>
        <dc:type
           rdf:resource="http://purl.org/dc/dcmitype/StillImage" />
        <dc:title></dc:title>
      </cc:Work>
    </rdf:RDF>
  </metadata>
  <sodipodi:namedview
     inkscape:current-layer="Capa_1"
     inkscape:window-maximized="1"
     inkscape:window-y="27"
     inkscape:window-x="0"
     inkscape:cy="185.075"
     inkscape:cx="383.48499"
     inkscape:zoom="1.6337015"
     showgrid="false"
     id="namedview123"
     inkscape:window-height="1016"
     inkscape:window-width="1920"
     inkscape:pageshadow="2"
     inkscape:pageopacity="0"
     guidetolerance="10"
     gridtolerance="10"
     objecttolerance="10"
     borderopacity="1"
     bordercolor="#666666"
     pagecolor="#ffffff" />
  <defs
     id="defs4">
    <style
       id="style2">.cls-1{fill:#95d6a4;}.cls-2{fill:#78c2a4;}.cls-3{fill:#f6e781;}.cls-4{fill:#f4dd45;}.cls-5{fill:#e4f6ff;}.cls-6{fill:#d3effb;}.cls-7{fill:#80ccdf;}.cls-8{fill:#82ccdc;}.cls-9{fill:#dd636e;}.cls-10{fill:#da4a54;}.cls-11{fill:#2b4d66;}.cls-12{fill:#4a80aa;}.cls-13{fill:#407093;}.cls-14{fill:#365e7d;}.cls-15{fill:#70c8d6;}.cls-16{fill:#b58fef;}.cls-17{fill:#8c6acc;}.cls-18{fill:#669ed5;}.cls-19{fill:#e8505b;}.cls-20{fill:#263238;}.cls-21{fill:#ffbe9d;}.cls-22{fill:#eb996e;}.cls-23{fill:#fff;}.cls-24{fill:#c7d3de;}.cls-25{fill:#3f3d56;}</style>
  </defs>
  <path
     id="path6"
     d="m 380.77529,224.13641 h -44.05 V 22.226409 a 6.81,6.81 0 0 1 6.82,-6.8 h 30.42 a 6.8,6.8 0 0 1 6.81,6.8 z"
     class="cls-1" />
  <path
     id="path8"
     d="m 336.72529,224.13641 h 15.15 a 96.63,96.63 0 0 0 -15.15,-52.05 z"
     class="cls-2" />
  <path
     id="path10"
     d="m 311.03529,224.13641 h -44.05 V 64.786409 a 6.8,6.8 0 0 1 6.81,-6.8 h 30.43 a 6.8,6.8 0 0 1 6.81,6.8 z"
     class="cls-3" />
  <path
     id="path12"
     d="m 266.98529,127.47641 v 96.66 h 44.05 v -79.2 a 97.22,97.22 0 0 0 -44.05,-17.43 z"
     class="cls-4" />
  <path
     id="path14"
     d="m 113.04529,241.99641 v -13.81 a 4.09,4.09 0 0 1 4.09,-4.08 h 274 a 4.09,4.09 0 0 1 4.09,4.08 v 13.81 a 4.08,4.08 0 0 1 -4.09,4.08 h -274 a 4.08,4.08 0 0 1 -4.09,-4.08 z"
     class="cls-5" />
  <path
     id="path16"
     d="m 349.36529,246.07641 a 97,97 0 0 0 2.51,-22 h -195.47 a 97,97 0 0 0 2.5,22 z"
     class="cls-6" />
  <path
     id="path18"
     d="m 241.29529,224.13641 h -44.05 V 94.306409 a 6.8,6.8 0 0 1 6.81,-6.8 h 30.47 a 6.81,6.81 0 0 1 6.82,6.8 z"
     class="cls-7" />
  <path
     id="path20"
     d="m 197.24529,144.90641 v 79.23 h 44.05 v -96.66 a 97.22,97.22 0 0 0 -44.05,17.43 z"
     class="cls-8" />
  <path
     id="path22"
     d="m 171.52529,224.13641 h -44 v -95.51 a 6.81,6.81 0 0 1 6.81,-6.8 h 30.43 a 6.81,6.81 0 0 1 6.81,6.8 z"
     class="cls-9" />
  <path
     id="path24"
     d="m 171.52529,172.05641 a 96.7,96.7 0 0 0 -15.12,52.08 h 15.12 z"
     class="cls-10" />
  <path
     id="path26"
     d="m 203.86529,328.13641 -26.6,-7.61 a 6.81,6.81 0 0 1 -4.68,-8.41 l 4.94,-17.21 39.7,11.36 -4.93,17.22 a 6.8,6.8 0 0 1 -8.43,4.65 z"
     class="cls-11" />
  <path
     id="path28"
     d="m 191.74529,350.38641 -16,-4.57 a 4.08,4.08 0 0 1 -2.81,-5 l 5.68,-19.84 23.91,6.77 -5.67,19.84 a 4.09,4.09 0 0 1 -5.11,2.8 z"
     class="cls-12" />
  <ellipse
     id="ellipse30"
     transform="rotate(-73.739795)"
     ry="82.589996"
     rx="82.370003"
     cy="274.36008"
     cx="-154.81706"
     class="cls-13" />
  <path
     id="path32"
     d="m 285.33529,174.68641 a 82.51,82.51 0 0 1 -143,79.14 82.51,82.51 0 1 0 143,-79.14 z"
     class="cls-14" />
  <ellipse
     id="ellipse34"
     transform="rotate(-74.03)"
     ry="60.57"
     rx="60.41"
     cy="272.45721"
     cx="-155.06789"
     class="cls-5" />
  <path
     id="path36"
     d="m 267.67529,187.79641 a 60.5,60.5 0 0 1 -104.86,58 60.5,60.5 0 1 0 104.86,-58 z"
     class="cls-6" />
  <path
     id="path38"
     d="m 617.90529,56.976409 c -16.15,-0.1 -29.31,11.68 -29.42,26.33 a 25.29,25.29 0 0 0 8.14,18.540001 l -54,96.8 a 29.87,29.87 0 0 0 -3.54,-0.34 31.47,31.47 0 0 0 -11,1.93 l -41.32,-42.6 a 24.43,24.43 0 0 0 3.76,-12.72 c 0.07,-14.68 -13,-26.64 -29.15,-26.72 -16.15,-0.08 -29.34,11.75 -29.42,26.42 a 25,25 0 0 0 7.1,17.27 l -51.17,80.42 a 32.63,32.63 0 0 0 -5.23,-0.51 c -16.17,-0.08 -29.34,11.75 -29.42,26.43 -0.08,14.68 13,26.64 29.15,26.72 16.15,0.08 29.35,-11.75 29.42,-26.43 a 25,25 0 0 0 -7.09,-17.27 l 51.16,-80.41 a 30.53,30.53 0 0 0 16.22,-1.43 l 41.32,42.59 a 24.35,24.35 0 0 0 -3.77,12.73 c -0.12,14.68 12.89,26.67 29.06,26.8 16.17,0.13 29.39,-11.67 29.51,-26.34 a 25.32,25.32 0 0 0 -8.15,-18.6 l 54,-96.81 a 32.14,32.14 0 0 0 3.54,0.35 c 16.17,0.08 29.34,-11.750001 29.42,-26.430001 0.08,-14.68 -12.95,-26.63 -29.12,-26.72 z m -235.38,220.250001 c -5.39,0 -9.74,-4 -9.71,-8.9 0.03,-4.9 4.41,-8.84 9.8,-8.81 5.39,0.03 9.74,4 9.72,8.91 -0.02,4.91 -4.43,8.83 -9.81,8.8 z m 78.72,-123.6 c -5.39,0 -9.74,-4 -9.72,-8.91 0.02,-4.91 4.42,-8.84 9.81,-8.81 5.39,0.03 9.74,4 9.72,8.91 -0.02,4.91 -4.44,8.83 -9.83,8.81 z m 77.69,80.11 c -5.39,0 -9.74,-4 -9.72,-8.91 0.02,-4.91 4.42,-8.84 9.81,-8.81 5.39,0.03 9.74,4 9.72,8.91 -0.02,4.91 -4.44,8.83 -9.83,8.81 z m 78.79,-141.330001 c -5.39,0 -9.74,-4 -9.72,-8.9 0.02,-4.9 4.41,-8.84 9.81,-8.81 5.4,0.03 9.74,4 9.71,8.9 -0.03,4.9 -4.41,8.84 -9.8,8.81 z"
     class="cls-9" />
  <path
     d="m 609.83529,320.13641 c -1.35,-18.8 -10.46,-35.16 -24.83,-45.19 a 58,58 0 0 0 -8.87,-5.05 62.36,62.36 0 0 1 10.13,30 c 0.1,1.49 0.17,3 0.17,4.47 a 60,60 0 0 1 -86.27,54.12 60.15,60.15 0 0 0 109.81,-33.94 c 0.03,-1.41 -0.04,-2.94 -0.14,-4.41 z"
     class="cls-15"
     data-name="Path 29344"
     id="Path_29344" />
  <circle
     r="4.3000002"
     cy="300.36642"
     cx="535.04529"
     class="cls-15"
     data-name="Ellipse 438"
     id="Ellipse_438" />
  <circle
     r="7.6900001"
     cy="315.87643"
     cx="547.41528"
     class="cls-15"
     data-name="Ellipse 439"
     id="Ellipse_439" />
  <path
     d="m 601.80529,325.53641 v 0.23 a 52,52 0 0 1 -88.91,36.21 51.14,51.14 0 0 1 -14.73,-30.92 v 0 a 51.18,51.18 0 0 1 26.48,-7.42 c 15.82,0.18 30.42,12.88 53.76,9.73 a 73.88,73.88 0 0 0 23.4,-7.83 z"
     class="cls-16"
     data-name="Path 29347"
     id="Path_29347" />
  <path
     d="m 601.80529,325.53641 v 0.23 a 51.76,51.76 0 0 1 -51.95,51.56 v 0 c -14.5,0 -26.11,-4.48 -35.53,-14 12.09,2.07 48.37,0.47 64.83,-30.18 6.94,-0.87 13.88,-3.14 22.65,-7.61 z"
     class="cls-17"
     data-name="Path 29348"
     id="Path_29348" />
  <circle
     r="7.7600002"
     cy="344.63641"
     cx="566.46533"
     class="cls-17"
     data-name="Ellipse 440"
     id="Ellipse_440" />
  <circle
     r="4.3000002"
     cy="336.09644"
     cx="514.31531"
     class="cls-17"
     data-name="Ellipse 441"
     id="Ellipse_441" />
  <path
     d="m 304.52529,296.77641 -41.76,-41.9 21,-38.59 c 21,-26.82 65.41,-25.16 65.41,-25.16 a 253.72,253.72 0 0 1 65.55,4 c 35.26,6.91 32.5,30.28 32.5,30.28 l 4.7,86.57 5.11,70.39 -130.12,2.63 -22.39,-88.22"
     class="cls-18"
     data-name="Path 29013"
     id="Path_29013" />
  <path
     d="m 374.72529,380.84641 -116.58,1.39 c -28.07,0.27 -46.74,-28.77 -34.71,-54.08 l 49.93,-92.51 45.36,30.7 -31,64.3 94.45,1.66 z"
     class="cls-18"
     data-name="Path 29014"
     id="Path_29014" />
  <path
     d="m 443.04529,211.13641 93.62,144.51 -54.63,3.6 c 0,0 -32.63,-51.45 -31.8,-50.34 1.29,1.97 -7.19,-97.77 -7.19,-97.77 z"
     class="cls-18"
     data-name="Path 29015"
     id="Path_29015" />
  <path
     d="M 300.88529,302.99641"
     class="cls-19"
     data-name="Path 29016"
     id="Path_29016" />
  <g
     transform="translate(-0.06470759,15.426409)"
     data-name="Group 1378"
     id="Group_1378">
    <path
       transform="translate(-1.41,-15.29)"
       d="m 317.7,274.51 a 2.73,2.73 0 0 1 0.14,-0.69 c 0.14,-0.55 0.28,-1.25 0.56,-2.07 0.41,-1.8 1.1,-4.43 1.65,-7.75 a 101.12,101.12 0 0 0 1.8,-11.61 60.65,60.65 0 0 0 0,-14.25 35.86,35.86 0 0 0 -4.85,-13.27 60.64,60.64 0 0 0 -6.91,-9.4 65.88,65.88 0 0 0 -5.67,-5.54 c -1.38,-1.24 -2.21,-1.8 -2.21,-1.93 a 6,6 0 0 1 0.69,0.41 c 0.41,0.28 1,0.69 1.66,1.25 a 38.53,38.53 0 0 1 5.81,5.39 50.91,50.91 0 0 1 7.19,9.4 40.52,40.52 0 0 1 5,13.55 54.94,54.94 0 0 1 -0.13,14.38 c -0.56,4.43 -1.25,8.3 -1.94,11.62 -0.69,3.32 -1.38,5.95 -1.94,7.74 a 8.47,8.47 0 0 1 -0.69,2.08 1.5,1.5 0 0 1 -0.16,0.69 z"
       class="cls-20"
       data-name="Path 29017"
       id="Path_29017" />
  </g>
  <g
     transform="translate(-0.06470759,15.426409)"
     data-name="Group 1379"
     id="Group_1379">
    <path
       transform="translate(-1.41,-15.29)"
       d="m 314,279.49 c 0,0 -0.27,0.83 -0.83,2.07 -0.56,1.24 -1.38,3.18 -2.49,5.53 -2.07,4.7 -5.11,11.2 -8.57,18.26 -3.46,7.06 -6.78,13.41 -9.13,18 -1.24,2.21 -2.21,4.14 -2.9,5.39 -0.69,1.25 -1.1,1.93 -1.1,1.93 0,0 0.27,-0.69 1,-2.07 0.73,-1.38 1.66,-3.18 2.77,-5.39 l 9,-18 c 3.46,-7 6.5,-13.41 8.71,-18.12 1.11,-2.21 1.94,-4 2.63,-5.53 a 16.16,16.16 0 0 1 0.91,-2.07 z"
       class="cls-20"
       data-name="Path 29018"
       id="Path_29018" />
  </g>
  <g
     transform="translate(-0.06470759,15.426409)"
     data-name="Group 1380"
     id="Group_1380">
    <path
       transform="translate(-1.41,-15.29)"
       d="m 376.2,380.71 v -1 c 0,-0.69 0.14,-1.52 0.28,-2.77 0.27,-2.49 0.69,-6 1.1,-10.37 1,-9 2.49,-21.57 4.15,-36.37 l 0.28,0.41 h -34.43 c -23.51,0 -44.81,-0.13 -60.3,-0.13 -7.6,0 -14,-0.14 -18.25,-0.14 v 0 c 4.42,0 10.65,0 18.25,-0.14 15.49,0 36.79,0 60.3,-0.14 h 34.85 v 0.42 c -1.8,14.8 -3.32,27.38 -4.43,36.37 -0.55,4.42 -1,7.88 -1.38,10.37 -0.14,1.1 -0.28,2.07 -0.42,2.76 a 5.42,5.42 0 0 1 -0.14,0.7 c 0.14,-0.1 0.14,0.03 0.14,0.03 z"
       class="cls-20"
       data-name="Path 29019"
       id="Path_29019" />
  </g>
  <g
     transform="translate(-0.06470759,15.426409)"
     data-name="Group 1381"
     id="Group_1381">
    <path
       transform="translate(-1.41,-15.29)"
       d="m 289.91,331.49 c -0.14,0 -0.83,-1.11 -2.35,-2.9 a 44.07,44.07 0 0 0 -6.22,-6.37 52.24,52.24 0 0 0 -7.33,-5.11 c -1.94,-1.11 -3.32,-1.66 -3.32,-1.8 0,-0.14 1.38,0.27 3.46,1.38 a 35.08,35.08 0 0 1 7.6,5 37.29,37.29 0 0 1 6.22,6.64 c 1.39,1.91 2.08,3.16 1.94,3.16 z"
       class="cls-20"
       data-name="Path 29020"
       id="Path_29020" />
  </g>
  <g
     transform="translate(-0.06470759,15.426409)"
     data-name="Group 1382"
     id="Group_1382">
    <path
       transform="translate(-1.41,-15.29)"
       d="m 455.3,340.61 a 4.67,4.67 0 0 1 -0.14,-1.24 c -0.13,-0.83 -0.27,-1.94 -0.41,-3.46 -0.28,-3 -0.69,-7.33 -1.25,-12.72 -1,-10.65 -2.07,-25.59 -3,-41.9 -0.93,-16.31 -1.66,-31.26 -2.07,-42 -0.14,-5.4 -0.28,-9.68 -0.42,-12.73 v -4.7 a 8.69,8.69 0 0 0 0.14,1.25 c 0,0.83 0.14,2.07 0.14,3.46 0.14,3 0.41,7.46 0.55,12.72 0.55,10.79 1.25,25.58 2.21,41.9 0.96,16.32 1.94,31.25 2.77,41.9 0.42,5.25 0.69,9.68 1,12.72 0.14,1.39 0.14,2.63 0.27,3.46 a 5.46,5.46 0 0 1 0.21,1.34 z"
       class="cls-20"
       data-name="Path 29021"
       id="Path_29021" />
  </g>
  <g
     transform="translate(-0.06470759,15.426409)"
     data-name="Group 1399"
     id="Group_1399">
    <path
       transform="translate(-1.41,-15.29)"
       d="m 380.07,347.8 c 0,0 23.23,-6.64 31,-8.71 3,-0.83 15.9,6 24.75,11.62 0,0 12.17,7.19 11.2,9.54 -0.97,2.35 -5.53,1.93 -12.72,-1.38 0,0 2.49,7.32 -2.35,7.19 0,0 2.49,7.88 -2.21,8.71 -4.7,0.83 -5.67,-9.27 -9.82,-9.82 -4.15,-0.55 -12.45,-1.11 -12.45,-1.11 0,0 -7.07,11.62 -12.47,12.45 -5.4,0.83 -18,-0.69 -18,-0.69 z"
       class="cls-21"
       data-name="Path 29034"
       id="Path_29034" />
    <g
       data-name="Group 1396"
       id="Group_1396">
      <ellipse
         transform="rotate(-57.79,411.4763,347.06243)"
         ry="7.4699998"
         rx="0.41"
         cy="353.42999"
         cx="426.06"
         class="cls-22"
         data-name="Ellipse 370"
         id="Ellipse_370" />
    </g>
    <g
       data-name="Group 1397"
       id="Group_1397">
      <ellipse
         transform="rotate(-65.23,413.38881,350.83655)"
         ry="8.3000002"
         rx="0.41999999"
         cy="357.38"
         cx="426.06"
         class="cls-22"
         data-name="Ellipse 371"
         id="Ellipse_371" />
    </g>
    <g
       data-name="Group 1398"
       id="Group_1398">
      <ellipse
         transform="matrix(0.14,-0.99,0.99,0.14,4.69,722.74)"
         ry="5.2600002"
         rx="0.41"
         cy="365.51999"
         cx="426.10001"
         class="cls-22"
         data-name="Ellipse 372"
         id="Ellipse_372" />
    </g>
  </g>
  <path
     d="m 348.31529,108.00641 a 5.1,5.1 0 0 1 -1.52,5.12 4.83,4.83 0 0 1 -5.26,0.55 c -3.18,-1.66 -3.6,-5.94 -2.9,-9.4 0.7,-3.46 1.8,-7.190001 0.28,-10.370001 -1.11,-2.49 -3.6,-4 -5.39,-6 a 15.51,15.51 0 0 1 -4.29,-13 12.77,12.77 0 0 1 8.85,-10.1 c 4.56,-1.24 10.37,0.14 13.83,-3.18 2.49,-2.49 2.63,-6.36 4.56,-9.26 3,-4.57 9.4,-5.26 14.66,-4.43 5.26,0.83 10.79,2.49 16,1.11 4.43,-1.11 8,-4.15 12,-6.09 a 24.45,24.45 0 0 1 27.1,5.26 c 6.78,7 8.3,18.53 3.88,27.24 a 15.7,15.7 0 0 1 -7.33,7.33"
     class="cls-20"
     data-name="Path 29035"
     id="Path_29035" />
  <g
     transform="translate(-0.06470759,15.426409)"
     data-name="Group 1415"
     id="Group_1415">
    <g
       data-name="Group 1414"
       id="Group_1414">
      <g
         data-name="Group 1413"
         id="Group_1413">
        <g
           data-name="Group 1400"
           id="Group_1400">
          <path
             transform="translate(-1.41,-15.29)"
             d="m 376.48,222.1 v 0 a 26.77,26.77 0 0 0 26.69,-26.84 v -0.13 l -0.42,-25.44 c 0,0 21.3,-2.08 22.82,-23.24 1.52,-21.16 0.42,-70 0.42,-70 v 0 a 73.65,73.65 0 0 0 -74.4,5.26 l -3.32,2.29 1.66,111.87 a 26.41,26.41 0 0 0 26.55,26.28 z"
             class="cls-21"
             data-name="Path 29036"
             id="Path_29036" />
        </g>
        <g
           data-name="Group 1404"
           id="Group_1404">
          <g
             data-name="Group 1401"
             id="Group_1401">
            <path
               transform="translate(-1.41,-15.29)"
               d="m 420.32,114.65 c -3.74,-0.69 -3.74,-5.53 0,-6.36 h 0.55 c 3.73,0.69 3.73,5.53 0,6.36 z"
               class="cls-20"
               data-name="Path 29037"
               id="Path_29037" />
          </g>
          <g
             data-name="Group 1403"
             id="Group_1403">
            <g
               data-name="Group 1402"
               id="Group_1402">
              <path
                 transform="translate(-1.41,-15.29)"
                 d="m 424.46,107.87 c -0.41,0.42 -2.35,-1.38 -5.25,-1.52 -2.9,-0.14 -5.12,1.25 -5.39,0.83 -0.14,-0.14 0.27,-0.83 1.24,-1.52 a 6.65,6.65 0 0 1 4.29,-1.11 7.73,7.73 0 0 1 4.15,1.66 c 0.83,0.84 1.1,1.52 0.96,1.66 z"
                 class="cls-20"
                 data-name="Path 29038"
                 id="Path_29038" />
            </g>
          </g>
        </g>
        <g
           data-name="Group 1408"
           id="Group_1408">
          <g
             data-name="Group 1405"
             id="Group_1405">
            <circle
               r="3.04"
               cy="95.959999"
               cx="387.51001"
               class="cls-20"
               data-name="Ellipse 373"
               id="Ellipse_373" />
          </g>
          <g
             data-name="Group 1407"
             id="Group_1407">
            <g
               data-name="Group 1406"
               id="Group_1406">
              <path
                 transform="translate(-1.41,-15.29)"
                 d="m 392.66,108.7 c -0.42,0.42 -2.35,-1.38 -5.26,-1.52 -2.91,-0.14 -5.11,1.25 -5.39,0.83 -0.14,-0.14 0.28,-0.83 1.24,-1.52 a 6.66,6.66 0 0 1 4.29,-1.11 7.7,7.7 0 0 1 4.15,1.66 c 0.83,0.84 1.11,1.52 0.97,1.66 z"
                 class="cls-20"
                 data-name="Path 29039"
                 id="Path_29039" />
            </g>
          </g>
        </g>
        <g
           data-name="Group 1410"
           id="Group_1410">
          <g
             data-name="Group 1409"
             id="Group_1409">
            <path
               transform="translate(-1.41,-15.29)"
               d="m 403,133.46 c 0,-0.28 1.8,-0.56 4.7,-0.7 0.83,0 1.38,-0.13 1.52,-0.55 A 5.39,5.39 0 0 0 408.81,130 c -0.7,-1.94 -1.25,-4 -1.94,-6.09 -2.77,-8.57 -4.56,-15.76 -4.15,-15.9 0.41,-0.14 3,6.78 5.67,15.35 0.69,2.08 1.25,4.15 1.8,6.09 a 4.84,4.84 0 0 1 0.28,3.18 1.88,1.88 0 0 1 -1.39,1.11 4.67,4.67 0 0 1 -1.24,0.13 c -3.01,0 -4.84,-0.14 -4.84,-0.41 z"
               class="cls-20"
               data-name="Path 29040"
               id="Path_29040" />
          </g>
        </g>
        <g
           data-name="Group 1411"
           id="Group_1411">
          <path
             transform="translate(-1.41,-15.29)"
             d="m 393.35,136.22 a 53.46,53.46 0 0 0 14.1,5 c 0,0 -3.73,5.25 -9.68,2.63 -6.22,-2.79 -4.42,-7.63 -4.42,-7.63 z"
             class="cls-23"
             data-name="Path 29041"
             id="Path_29041" />
        </g>
        <g
           data-name="Group 1412"
           id="Group_1412">
          <path
             transform="translate(-1.41,-15.29)"
             d="m 402.75,169.27 c 0,0 -13.41,0.41 -27.24,-9.4 0,0 5.67,15.63 27,14.8 z"
             class="cls-22"
             data-name="Path 29042"
             id="Path_29042" />
        </g>
      </g>
    </g>
  </g>
  <path
     d="m 424.52529,81.876409 c 0,0 -12.73,6.5 -29.74,-1.52 -11.06,-5.26 -24.06,-7.75 -26.82,-5.4 -2.76,2.35 -3.19,13.69 -14,17.15 0,0 1.11,21.710001 -7.47,21.000001 -8.58,-0.71 -3.87,-34.300001 -3.87,-34.300001 l 20.9,-10.77 23,-4.84 21.85,2.63 16.83,4.31 z"
     class="cls-20"
     data-name="Path 29043"
     id="Path_29043" />
  <g
     transform="translate(-0.06470759,15.426409)"
     data-name="Group 1419"
     id="Group_1419">
    <g
       data-name="Group 1416"
       id="Group_1416">
      <path
         transform="translate(-1.41,-15.29)"
         d="m 349.65,105.94 c -0.41,-0.14 -14.38,-5.12 -14.66,9.4 -0.28,14.52 14.25,11.89 14.38,11.47 0.13,-0.42 0.28,-20.87 0.28,-20.87 z"
         class="cls-21"
         data-name="Path 29044"
         id="Path_29044" />
    </g>
    <g
       data-name="Group 1418"
       id="Group_1418">
      <g
         data-name="Group 1417"
         id="Group_1417">
        <path
           transform="translate(-1.41,-15.29)"
           d="m 345,121.15 a 6,6 0 0 0 -0.69,0.41 2.93,2.93 0 0 1 -1.94,0 c -1.52,-0.55 -2.76,-3 -2.76,-5.67 a 7.17,7.17 0 0 1 0.83,-3.6 2.69,2.69 0 0 1 1.93,-1.93 1.38,1.38 0 0 1 1.52,0.69 2.29,2.29 0 0 1 0.14,0.69 1.25,1.25 0 0 0 0.28,-0.83 1.74,1.74 0 0 0 -0.56,-1 2,2 0 0 0 -1.38,-0.41 3.29,3.29 0 0 0 -2.63,2.21 9.14,9.14 0 0 0 -1,4 c 0,2.9 1.52,5.67 3.6,6.36 a 3.11,3.11 0 0 0 2.35,-0.28 c 0.31,-0.23 0.4,-0.64 0.31,-0.64 z"
           class="cls-22"
           data-name="Path 29045"
           id="Path_29045" />
      </g>
    </g>
  </g>
  <g
     transform="translate(-0.06470759,15.426409)"
     data-name="Group 1420"
     id="Group_1420">
    <path
       transform="translate(-1.41,-15.29)"
       d="m 342.18,60.58 c -0.14,-0.14 2.35,-0.83 5,0.13 2.65,0.96 4.15,3 3.87,3.18 -0.28,0.18 -1.66,-1.52 -4.15,-2.48 a 15.33,15.33 0 0 0 -4.72,-0.83 z"
       class="cls-20"
       data-name="Path 29046"
       id="Path_29046" />
  </g>
  <g
     transform="translate(-0.06470759,15.426409)"
     data-name="Group 1421"
     id="Group_1421">
    <path
       transform="translate(-1.41,-15.29)"
       d="m 350.9,51.87 c 0.27,0 -0.14,3 0.41,6.63 0.55,3.63 2.21,6.23 2.07,6.36 a 10,10 0 0 1 -1.24,-1.65 15.77,15.77 0 0 1 -1.52,-4.57 15.18,15.18 0 0 1 0.28,-6.77 z"
       class="cls-20"
       data-name="Path 29047"
       id="Path_29047" />
  </g>
  <g
     transform="translate(-0.06470759,15.426409)"
     data-name="Group 1422"
     id="Group_1422">
    <path
       transform="translate(-1.41,-15.29)"
       d="m 410.49,101 c -0.13,-0.14 0.56,-0.69 1.66,-1.11 A 14.53,14.53 0 0 1 417,99 a 11.48,11.48 0 0 1 4.84,1 c 1.11,0.55 1.8,1 1.66,1.25 -0.14,0.25 -2.9,-0.7 -6.5,-0.7 -3.46,-0.28 -6.36,0.82 -6.51,0.45 z"
       class="cls-20"
       data-name="Path 29048"
       id="Path_29048" />
  </g>
  <g
     transform="translate(-0.06470759,15.426409)"
     data-name="Group 1423"
     id="Group_1423">
    <path
       transform="translate(-1.41,-15.29)"
       d="m 378.13,97.92 c -0.13,-0.14 0.56,-0.7 1.66,-1.11 a 14.53,14.53 0 0 1 4.84,-0.83 11.48,11.48 0 0 1 4.84,1 c 1.11,0.55 1.8,1 1.66,1.24 -0.14,0.42 -2.9,-0.69 -6.5,-0.69 -3.45,-0.31 -6.22,0.8 -6.5,0.39 z"
       class="cls-20"
       data-name="Path 29049"
       id="Path_29049" />
  </g>
  <g
     transform="translate(-0.06470759,15.426409)"
     data-name="Group 1429"
     id="Group_1429">
    <g
       data-name="Group 1425"
       id="Group_1425">
      <path
         transform="translate(-1.41,-15.29)"
         d="m 408,103.31 v 0.83 a 15.37,15.37 0 0 0 0.14,2.35 c 0,1.2 0,2.4 0.13,3.6 a 15,15 0 0 0 0.69,4.7 12.42,12.42 0 0 0 3,4.84 13.42,13.42 0 0 0 5.67,3.18 10.15,10.15 0 0 0 3.6,0.28 8.19,8.19 0 0 0 3.6,-0.83 11.94,11.94 0 0 0 5.94,-4.84 12.15,12.15 0 0 0 1.94,-7 v -7.2 l 0.28,0.28 c -7.2,0 -13.42,-0.14 -18,-0.14 -2.21,0 -3.87,0 -5.26,-0.13 h -1.38 a 0.67,0.67 0 0 1 -0.41,0.13 c 0,0 0.55,0 1.8,-0.13 1.25,-0.13 3,0 5.11,-0.14 4.57,0 10.79,-0.14 18.12,-0.14 h 0.28 v 7.47 a 12.3,12.3 0 0 1 -2.08,7.47 13.48,13.48 0 0 1 -6.36,5.11 17,17 0 0 1 -3.87,0.83 8.63,8.63 0 0 1 -3.74,-0.41 12.64,12.64 0 0 1 -5.94,-3.32 14.28,14.28 0 0 1 -3.18,-5.12 12.58,12.58 0 0 1 -0.56,-4.84 33.22,33.22 0 0 1 0.14,-3.73 12.27,12.27 0 0 1 0.14,-2.35 c 0.2,-0.61 0.2,-0.89 0.2,-0.75 z"
         class="cls-20"
         data-name="Path 29050"
         id="Path_29050" />
    </g>
    <g
       data-name="Group 1426"
       id="Group_1426">
      <path
         transform="translate(-1.41,-15.29)"
         d="m 374.13,102.48 v 0.83 a 15.37,15.37 0 0 0 0.14,2.35 c 0,1.2 0,2.4 0.13,3.6 a 15,15 0 0 0 0.69,4.7 12.42,12.42 0 0 0 3.05,4.84 13.42,13.42 0 0 0 5.67,3.18 10.15,10.15 0 0 0 3.6,0.28 8.19,8.19 0 0 0 3.6,-0.83 11.94,11.94 0 0 0 5.94,-4.84 12.15,12.15 0 0 0 1.94,-7 v -7.2 l 0.28,0.28 c -7.2,0 -13.42,-0.14 -18,-0.14 -2.21,0 -3.87,0 -5.26,-0.13 h -1.38 c -0.28,0.27 -0.41,0.13 -0.41,0.13 0,0 0.55,0 1.8,-0.13 1.25,-0.13 3,0 5.11,-0.14 4.57,0 10.79,-0.14 18.12,-0.14 h 0.28 v 7.47 a 12.3,12.3 0 0 1 -2.08,7.47 13.48,13.48 0 0 1 -6.36,5.11 17,17 0 0 1 -3.87,0.83 8.63,8.63 0 0 1 -3.74,-0.41 12.64,12.64 0 0 1 -5.94,-3.32 14.28,14.28 0 0 1 -3.18,-5.12 12.39,12.39 0 0 1 -0.56,-4.84 33.22,33.22 0 0 1 0.14,-3.73 12.27,12.27 0 0 1 0.14,-2.35 2.4,2.4 0 0 0 0.15,-0.75 z"
         class="cls-20"
         data-name="Path 29051"
         id="Path_29051" />
    </g>
    <g
       data-name="Group 1427"
       id="Group_1427">
      <ellipse
         ry="0.41"
         rx="4.8400002"
         cy="88.989998"
         cx="402.17001"
         class="cls-20"
         data-name="Ellipse 374"
         id="Ellipse_374" />
    </g>
    <g
       data-name="Group 1428"
       id="Group_1428">
      <ellipse
         transform="translate(-1.73,-14.2)"
         ry="0.41999999"
         rx="13.28"
         cy="104.41"
         cx="360.85999"
         class="cls-20"
         data-name="Ellipse 375"
         id="Ellipse_375" />
    </g>
  </g>
  <path
     d="m 494.62529,266.42641 -45.78,113.53 h -82.83 v 5.12 h 246.57 l 50.33,-118.65 z"
     class="cls-20"
     data-name="Path 29057"
     id="Path_29057" />
  <ellipse
     transform="rotate(-73.74)"
     ry="8.1599998"
     rx="10.79"
     cy="627.45074"
     cx="-162.07053"
     class="cls-24"
     data-name="Ellipse 377"
     id="Ellipse_377" />
</svg>
