<svg id="Capa_1" data-name="Capa 1" xmlns="http://www.w3.org/2000/svg" viewBox="0 0 766.97 370.15"><defs><style>.cls-1{fill:#95d6a4;}.cls-2{fill:#78c2a4;}.cls-3{fill:#f6e781;}.cls-4{fill:#f4dd45;}.cls-5{fill:#e4f6ff;}.cls-6{fill:#d3effb;}.cls-7{fill:#80ccdf;}.cls-8{fill:#82ccdc;}.cls-9{fill:#dd636e;}.cls-10{fill:#da4a54;}.cls-11{fill:#2b4d66;}.cls-12{fill:#4a80aa;}.cls-13{fill:#407093;}.cls-14{fill:#365e7d;}.cls-15{fill:#70c8d6;}.cls-16{fill:#b58fef;}.cls-17{fill:#8c6acc;}.cls-18{fill:#669ed5;}.cls-19{fill:#e8505b;}.cls-20{fill:#263238;}.cls-21{fill:#ffbe9d;}.cls-22{fill:#eb996e;}.cls-23{fill:#fff;}.cls-24{fill:#c7d3de;}.cls-25{fill:#3f3d56;}</style></defs><path class="cls-1" d="M382.25,224H338.2V22.09a6.81,6.81,0,0,1,6.82-6.8h30.42a6.8,6.8,0,0,1,6.81,6.8Z" transform="translate(-1.41 -15.29)"/><path class="cls-2" d="M338.2,224h15.15a96.63,96.63,0,0,0-15.15-52.05Z" transform="translate(-1.41 -15.29)"/><path class="cls-3" d="M312.51,224H268.46V64.65a6.8,6.8,0,0,1,6.81-6.8H305.7a6.8,6.8,0,0,1,6.81,6.8Z" transform="translate(-1.41 -15.29)"/><path class="cls-4" d="M268.46,127.34V224h44.05v-79.2a97.22,97.22,0,0,0-44.05-17.43Z" transform="translate(-1.41 -15.29)"/><path class="cls-5" d="M114.52,241.86V228.05a4.09,4.09,0,0,1,4.09-4.08h274a4.09,4.09,0,0,1,4.09,4.08v13.81a4.08,4.08,0,0,1-4.09,4.08h-274A4.08,4.08,0,0,1,114.52,241.86Z" transform="translate(-1.41 -15.29)"/><path class="cls-6" d="M350.84,245.94a97,97,0,0,0,2.51-22H157.88a97,97,0,0,0,2.5,22Z" transform="translate(-1.41 -15.29)"/><path class="cls-7" d="M242.77,224H198.72V94.17a6.8,6.8,0,0,1,6.81-6.8H236a6.81,6.81,0,0,1,6.82,6.8Z" transform="translate(-1.41 -15.29)"/><path class="cls-8" d="M198.72,144.77V224h44.05V127.34a97.22,97.22,0,0,0-44.05,17.43Z" transform="translate(-1.41 -15.29)"/><path class="cls-9" d="M173,224H129V128.49a6.81,6.81,0,0,1,6.81-6.8h30.43a6.81,6.81,0,0,1,6.81,6.8Z" transform="translate(-1.41 -15.29)"/><path class="cls-10" d="M173,171.92A96.7,96.7,0,0,0,157.88,224H173Z" transform="translate(-1.41 -15.29)"/><path class="cls-11" d="M205.34,328l-26.6-7.61a6.81,6.81,0,0,1-4.68-8.41L179,294.77l39.7,11.36-4.93,17.22A6.8,6.8,0,0,1,205.34,328Z" transform="translate(-1.41 -15.29)"/><path class="cls-12" d="M193.22,350.25l-16-4.57a4.08,4.08,0,0,1-2.81-5l5.68-19.84L204,327.61l-5.67,19.84A4.09,4.09,0,0,1,193.22,350.25Z" transform="translate(-1.41 -15.29)"/><ellipse class="cls-13" cx="220.74" cy="223.89" rx="82.37" ry="82.59" transform="matrix(0.28, -0.96, 0.96, 0.28, -56.64, 359.24)"/><path class="cls-14" d="M286.81,174.55a82.51,82.51,0,0,1-143,79.14,82.51,82.51,0,1,0,143-79.14Z" transform="translate(-1.41 -15.29)"/><ellipse class="cls-5" cx="220.74" cy="223.89" rx="60.41" ry="60.57" transform="translate(-56.64 359.24) rotate(-74.03)"/><path class="cls-6" d="M269.15,187.66a60.5,60.5,0,0,1-104.86,58,60.5,60.5,0,1,0,104.86-58Z" transform="translate(-1.41 -15.29)"/><path class="cls-9" d="M619.38,56.84c-16.15-.1-29.31,11.68-29.42,26.33a25.29,25.29,0,0,0,8.14,18.54l-54,96.8a29.87,29.87,0,0,0-3.54-.34,31.47,31.47,0,0,0-11,1.93l-41.32-42.6A24.43,24.43,0,0,0,492,144.78c.07-14.68-13-26.64-29.15-26.72s-29.34,11.75-29.42,26.42a25,25,0,0,0,7.1,17.27l-51.17,80.42a32.63,32.63,0,0,0-5.23-.51c-16.17-.08-29.34,11.75-29.42,26.43s13,26.64,29.15,26.72,29.35-11.75,29.42-26.43a25,25,0,0,0-7.09-17.27l51.16-80.41a30.53,30.53,0,0,0,16.22-1.43l41.32,42.59a24.35,24.35,0,0,0-3.77,12.73c-.12,14.68,12.89,26.67,29.06,26.8s29.39-11.67,29.51-26.34a25.32,25.32,0,0,0-8.15-18.6l54-96.81a32.14,32.14,0,0,0,3.54.35c16.17.08,29.34-11.75,29.42-26.43S635.55,56.93,619.38,56.84ZM384,277.09c-5.39,0-9.74-4-9.71-8.9s4.41-8.84,9.8-8.81,9.74,4,9.72,8.91S389.38,277.12,384,277.09Zm78.72-123.6c-5.39,0-9.74-4-9.72-8.91s4.42-8.84,9.81-8.81,9.74,4,9.72,8.91S468.09,153.51,462.7,153.49Zm77.69,80.11c-5.39,0-9.74-4-9.72-8.91s4.42-8.84,9.81-8.81,9.74,4,9.72,8.91S545.78,233.62,540.39,233.6ZM619.2,92.27c-5.39,0-9.74-4-9.72-8.9s4.41-8.84,9.81-8.81,9.74,4,9.71,8.9S624.59,92.3,619.2,92.27Z" transform="translate(-1.41 -15.29)"/><path id="Path_29344" data-name="Path 29344" class="cls-15" d="M611.31,320c-1.35-18.8-10.46-35.16-24.83-45.19a58,58,0,0,0-8.87-5.05,62.36,62.36,0,0,1,10.13,30c.1,1.49.17,3,.17,4.47a60,60,0,0,1-86.27,54.12,60.15,60.15,0,0,0,109.81-33.94C611.48,323,611.41,321.47,611.31,320Z" transform="translate(-1.41 -15.29)"/><circle id="Ellipse_438" data-name="Ellipse 438" class="cls-15" cx="535.11" cy="284.94" r="4.3"/><circle id="Ellipse_439" data-name="Ellipse 439" class="cls-15" cx="547.48" cy="300.45" r="7.69"/><path id="Path_29347" data-name="Path 29347" class="cls-16" d="M603.28,325.4v.23a52,52,0,0,1-88.91,36.21,51.14,51.14,0,0,1-14.73-30.92v0a51.18,51.18,0,0,1,26.48-7.42c15.82.18,30.42,12.88,53.76,9.73A73.88,73.88,0,0,0,603.28,325.4Z" transform="translate(-1.41 -15.29)"/><path id="Path_29348" data-name="Path 29348" class="cls-17" d="M603.28,325.4v.23a51.76,51.76,0,0,1-51.95,51.56h0c-14.5,0-26.11-4.48-35.53-14,12.09,2.07,48.37.47,64.83-30.18C587.57,332.14,594.51,329.87,603.28,325.4Z" transform="translate(-1.41 -15.29)"/><circle id="Ellipse_440" data-name="Ellipse 440" class="cls-17" cx="566.53" cy="329.21" r="7.76"/><circle id="Ellipse_441" data-name="Ellipse 441" class="cls-17" cx="514.38" cy="320.67" r="4.3"/><path id="Path_29013" data-name="Path 29013" class="cls-18" d="M306,296.64l-41.76-41.9,21-38.59c21-26.82,65.41-25.16,65.41-25.16a253.72,253.72,0,0,1,65.55,4c35.26,6.91,32.5,30.28,32.5,30.28l4.7,86.57,5.11,70.39-130.12,2.63L306,296.64" transform="translate(-1.41 -15.29)"/><path id="Path_29014" data-name="Path 29014" class="cls-18" d="M376.2,380.71,259.62,382.1c-28.07.27-46.74-28.77-34.71-54.08l49.93-92.51,45.36,30.7-31,64.3,94.45,1.66Z" transform="translate(-1.41 -15.29)"/><path id="Path_29015" data-name="Path 29015" class="cls-18" d="M444.52,211l93.62,144.51-54.63,3.6s-32.63-51.45-31.8-50.34C453,310.74,444.52,211,444.52,211Z" transform="translate(-1.41 -15.29)"/><path id="Path_29016" data-name="Path 29016" class="cls-19" d="M302.36,302.86" transform="translate(-1.41 -15.29)"/><g id="Group_1378" data-name="Group 1378"><path id="Path_29017" data-name="Path 29017" class="cls-20" d="M317.7,274.51a2.73,2.73,0,0,1,.14-.69c.14-.55.28-1.25.56-2.07.41-1.8,1.1-4.43,1.65-7.75a101.12,101.12,0,0,0,1.8-11.61,60.65,60.65,0,0,0,0-14.25A35.86,35.86,0,0,0,317,224.87a60.64,60.64,0,0,0-6.91-9.4,65.88,65.88,0,0,0-5.67-5.54c-1.38-1.24-2.21-1.8-2.21-1.93a6,6,0,0,1,.69.41c.41.28,1,.69,1.66,1.25a38.53,38.53,0,0,1,5.81,5.39,50.91,50.91,0,0,1,7.19,9.4,40.52,40.52,0,0,1,5,13.55,54.94,54.94,0,0,1-.13,14.38c-.56,4.43-1.25,8.3-1.94,11.62s-1.38,5.95-1.94,7.74a8.47,8.47,0,0,1-.69,2.08A1.5,1.5,0,0,1,317.7,274.51Z" transform="translate(-1.41 -15.29)"/></g><g id="Group_1379" data-name="Group 1379"><path id="Path_29018" data-name="Path 29018" class="cls-20" d="M314,279.49s-.27.83-.83,2.07-1.38,3.18-2.49,5.53c-2.07,4.7-5.11,11.2-8.57,18.26s-6.78,13.41-9.13,18c-1.24,2.21-2.21,4.14-2.9,5.39s-1.1,1.93-1.1,1.93.27-.69,1-2.07,1.66-3.18,2.77-5.39l9-18c3.46-7,6.5-13.41,8.71-18.12,1.11-2.21,1.94-4,2.63-5.53A16.16,16.16,0,0,1,314,279.49Z" transform="translate(-1.41 -15.29)"/></g><g id="Group_1380" data-name="Group 1380"><path id="Path_29019" data-name="Path 29019" class="cls-20" d="M376.2,380.71v-1c0-.69.14-1.52.28-2.77.27-2.49.69-6,1.1-10.37,1-9,2.49-21.57,4.15-36.37l.28.41H347.58c-23.51,0-44.81-.13-60.3-.13-7.6,0-14-.14-18.25-.14h0c4.42,0,10.65,0,18.25-.14,15.49,0,36.79,0,60.3-.14h34.85v.42c-1.8,14.8-3.32,27.38-4.43,36.37-.55,4.42-1,7.88-1.38,10.37-.14,1.1-.28,2.07-.42,2.76a5.42,5.42,0,0,1-.14.7C376.2,380.58,376.2,380.71,376.2,380.71Z" transform="translate(-1.41 -15.29)"/></g><g id="Group_1381" data-name="Group 1381"><path id="Path_29020" data-name="Path 29020" class="cls-20" d="M289.91,331.49c-.14,0-.83-1.11-2.35-2.9a44.07,44.07,0,0,0-6.22-6.37,52.24,52.24,0,0,0-7.33-5.11c-1.94-1.11-3.32-1.66-3.32-1.8s1.38.27,3.46,1.38a35.08,35.08,0,0,1,7.6,5,37.29,37.29,0,0,1,6.22,6.64C289.36,330.24,290.05,331.49,289.91,331.49Z" transform="translate(-1.41 -15.29)"/></g><g id="Group_1382" data-name="Group 1382"><path id="Path_29021" data-name="Path 29021" class="cls-20" d="M455.3,340.61a4.67,4.67,0,0,1-.14-1.24c-.13-.83-.27-1.94-.41-3.46-.28-3-.69-7.33-1.25-12.72-1-10.65-2.07-25.59-3-41.9s-1.66-31.26-2.07-42c-.14-5.4-.28-9.68-.42-12.73v-4.7a8.69,8.69,0,0,0,.14,1.25c0,.83.14,2.07.14,3.46.14,3,.41,7.46.55,12.72.55,10.79,1.25,25.58,2.21,41.9s1.94,31.25,2.77,41.9c.42,5.25.69,9.68,1,12.72.14,1.39.14,2.63.27,3.46A5.46,5.46,0,0,1,455.3,340.61Z" transform="translate(-1.41 -15.29)"/></g><g id="Group_1399" data-name="Group 1399"><path id="Path_29034" data-name="Path 29034" class="cls-21" d="M380.07,347.8s23.23-6.64,31-8.71c3-.83,15.9,6,24.75,11.62,0,0,12.17,7.19,11.2,9.54s-5.53,1.93-12.72-1.38c0,0,2.49,7.32-2.35,7.19,0,0,2.49,7.88-2.21,8.71s-5.67-9.27-9.82-9.82-12.45-1.11-12.45-1.11S400.4,375.46,395,376.29s-18-.69-18-.69Z" transform="translate(-1.41 -15.29)"/><g id="Group_1396" data-name="Group 1396"><ellipse id="Ellipse_370" data-name="Ellipse 370" class="cls-22" cx="426.06" cy="353.43" rx="0.41" ry="7.47" transform="translate(-101.5 510.22) rotate(-57.79)"/></g><g id="Group_1397" data-name="Group 1397"><ellipse id="Ellipse_371" data-name="Ellipse 371" class="cls-22" cx="426.06" cy="357.38" rx="0.42" ry="8.3" transform="translate(-78.37 579.2) rotate(-65.23)"/></g><g id="Group_1398" data-name="Group 1398"><ellipse id="Ellipse_372" data-name="Ellipse 372" class="cls-22" cx="426.1" cy="365.52" rx="0.41" ry="5.26" transform="matrix(0.14, -0.99, 0.99, 0.14, 4.69, 722.74)"/></g></g><path id="Path_29035" data-name="Path 29035" class="cls-20" d="M349.79,107.87a5.1,5.1,0,0,1-1.52,5.12,4.83,4.83,0,0,1-5.26.55c-3.18-1.66-3.6-5.94-2.9-9.4s1.8-7.19.28-10.37c-1.11-2.49-3.6-4-5.39-6a15.51,15.51,0,0,1-4.29-13,12.77,12.77,0,0,1,8.85-10.1c4.56-1.24,10.37.14,13.83-3.18,2.49-2.49,2.63-6.36,4.56-9.26,3-4.57,9.4-5.26,14.66-4.43s10.79,2.49,16,1.11c4.43-1.11,8-4.15,12-6.09a24.45,24.45,0,0,1,27.1,5.26c6.78,7,8.3,18.53,3.88,27.24a15.7,15.7,0,0,1-7.33,7.33" transform="translate(-1.41 -15.29)"/><g id="Group_1415" data-name="Group 1415"><g id="Group_1414" data-name="Group 1414"><g id="Group_1413" data-name="Group 1413"><g id="Group_1400" data-name="Group 1400"><path id="Path_29036" data-name="Path 29036" class="cls-21" d="M376.48,222.1h0a26.77,26.77,0,0,0,26.69-26.84v-.13l-.42-25.44s21.3-2.08,22.82-23.24.42-70,.42-70h0a73.65,73.65,0,0,0-74.4,5.26L348.27,84l1.66,111.87a26.41,26.41,0,0,0,26.55,26.28Z" transform="translate(-1.41 -15.29)"/></g><g id="Group_1404" data-name="Group 1404"><g id="Group_1401" data-name="Group 1401"><path id="Path_29037" data-name="Path 29037" class="cls-20" d="M420.32,114.65c-3.74-.69-3.74-5.53,0-6.36h.55c3.73.69,3.73,5.53,0,6.36Z" transform="translate(-1.41 -15.29)"/></g><g id="Group_1403" data-name="Group 1403"><g id="Group_1402" data-name="Group 1402"><path id="Path_29038" data-name="Path 29038" class="cls-20" d="M424.46,107.87c-.41.42-2.35-1.38-5.25-1.52s-5.12,1.25-5.39.83c-.14-.14.27-.83,1.24-1.52a6.65,6.65,0,0,1,4.29-1.11,7.73,7.73,0,0,1,4.15,1.66C424.33,107.05,424.6,107.73,424.46,107.87Z" transform="translate(-1.41 -15.29)"/></g></g></g><g id="Group_1408" data-name="Group 1408"><g id="Group_1405" data-name="Group 1405"><circle id="Ellipse_373" data-name="Ellipse 373" class="cls-20" cx="387.51" cy="95.96" r="3.04"/></g><g id="Group_1407" data-name="Group 1407"><g id="Group_1406" data-name="Group 1406"><path id="Path_29039" data-name="Path 29039" class="cls-20" d="M392.66,108.7c-.42.42-2.35-1.38-5.26-1.52s-5.11,1.25-5.39.83c-.14-.14.28-.83,1.24-1.52a6.66,6.66,0,0,1,4.29-1.11,7.7,7.7,0,0,1,4.15,1.66C392.52,107.88,392.8,108.56,392.66,108.7Z" transform="translate(-1.41 -15.29)"/></g></g></g><g id="Group_1410" data-name="Group 1410"><g id="Group_1409" data-name="Group 1409"><path id="Path_29040" data-name="Path 29040" class="cls-20" d="M403,133.46c0-.28,1.8-.56,4.7-.7.83,0,1.38-.13,1.52-.55a5.39,5.39,0,0,0-.41-2.21c-.7-1.94-1.25-4-1.94-6.09-2.77-8.57-4.56-15.76-4.15-15.9s3,6.78,5.67,15.35c.69,2.08,1.25,4.15,1.8,6.09a4.84,4.84,0,0,1,.28,3.18,1.88,1.88,0,0,1-1.39,1.11,4.67,4.67,0,0,1-1.24.13C404.83,133.87,403,133.73,403,133.46Z" transform="translate(-1.41 -15.29)"/></g></g><g id="Group_1411" data-name="Group 1411"><path id="Path_29041" data-name="Path 29041" class="cls-23" d="M393.35,136.22a53.46,53.46,0,0,0,14.1,5s-3.73,5.25-9.68,2.63C391.55,141.06,393.35,136.22,393.35,136.22Z" transform="translate(-1.41 -15.29)"/></g><g id="Group_1412" data-name="Group 1412"><path id="Path_29042" data-name="Path 29042" class="cls-22" d="M402.75,169.27s-13.41.41-27.24-9.4c0,0,5.67,15.63,27,14.8Z" transform="translate(-1.41 -15.29)"/></g></g></g></g><path id="Path_29043" data-name="Path 29043" class="cls-20" d="M426,81.74s-12.73,6.5-29.74-1.52c-11.06-5.26-24.06-7.75-26.82-5.4s-3.19,13.69-14,17.15c0,0,1.11,21.71-7.47,21s-3.87-34.3-3.87-34.3L365,67.9l23-4.84,21.85,2.63L426.68,70Z" transform="translate(-1.41 -15.29)"/><g id="Group_1419" data-name="Group 1419"><g id="Group_1416" data-name="Group 1416"><path id="Path_29044" data-name="Path 29044" class="cls-21" d="M349.65,105.94c-.41-.14-14.38-5.12-14.66,9.4s14.25,11.89,14.38,11.47S349.65,105.94,349.65,105.94Z" transform="translate(-1.41 -15.29)"/></g><g id="Group_1418" data-name="Group 1418"><g id="Group_1417" data-name="Group 1417"><path id="Path_29045" data-name="Path 29045" class="cls-22" d="M345,121.15a6,6,0,0,0-.69.41,2.93,2.93,0,0,1-1.94,0c-1.52-.55-2.76-3-2.76-5.67a7.17,7.17,0,0,1,.83-3.6,2.69,2.69,0,0,1,1.93-1.93,1.38,1.38,0,0,1,1.52.69,2.29,2.29,0,0,1,.14.69,1.25,1.25,0,0,0,.28-.83,1.74,1.74,0,0,0-.56-1,2,2,0,0,0-1.38-.41,3.29,3.29,0,0,0-2.63,2.21,9.14,9.14,0,0,0-1,4c0,2.9,1.52,5.67,3.6,6.36a3.11,3.11,0,0,0,2.35-.28C345,121.56,345.09,121.15,345,121.15Z" transform="translate(-1.41 -15.29)"/></g></g></g><g id="Group_1420" data-name="Group 1420"><path id="Path_29046" data-name="Path 29046" class="cls-20" d="M342.18,60.58c-.14-.14,2.35-.83,5,.13s4.15,3,3.87,3.18-1.66-1.52-4.15-2.48A15.33,15.33,0,0,0,342.18,60.58Z" transform="translate(-1.41 -15.29)"/></g><g id="Group_1421" data-name="Group 1421"><path id="Path_29047" data-name="Path 29047" class="cls-20" d="M350.9,51.87c.27,0-.14,3,.41,6.63s2.21,6.23,2.07,6.36a10,10,0,0,1-1.24-1.65,15.77,15.77,0,0,1-1.52-4.57A15.18,15.18,0,0,1,350.9,51.87Z" transform="translate(-1.41 -15.29)"/></g><g id="Group_1422" data-name="Group 1422"><path id="Path_29048" data-name="Path 29048" class="cls-20" d="M410.49,101c-.13-.14.56-.69,1.66-1.11A14.53,14.53,0,0,1,417,99a11.48,11.48,0,0,1,4.84,1c1.11.55,1.8,1,1.66,1.25s-2.9-.7-6.5-.7C413.54,100.27,410.64,101.37,410.49,101Z" transform="translate(-1.41 -15.29)"/></g><g id="Group_1423" data-name="Group 1423"><path id="Path_29049" data-name="Path 29049" class="cls-20" d="M378.13,97.92c-.13-.14.56-.7,1.66-1.11a14.53,14.53,0,0,1,4.84-.83,11.48,11.48,0,0,1,4.84,1c1.11.55,1.8,1,1.66,1.24-.14.42-2.9-.69-6.5-.69C381.18,97.22,378.41,98.33,378.13,97.92Z" transform="translate(-1.41 -15.29)"/></g><g id="Group_1429" data-name="Group 1429"><g id="Group_1425" data-name="Group 1425"><path id="Path_29050" data-name="Path 29050" class="cls-20" d="M408,103.31v.83a15.37,15.37,0,0,0,.14,2.35c0,1.2,0,2.4.13,3.6a15,15,0,0,0,.69,4.7,12.42,12.42,0,0,0,3,4.84,13.42,13.42,0,0,0,5.67,3.18,10.15,10.15,0,0,0,3.6.28,8.19,8.19,0,0,0,3.6-.83,11.94,11.94,0,0,0,5.94-4.84,12.15,12.15,0,0,0,1.94-7v-7.2l.28.28c-7.2,0-13.42-.14-18-.14-2.21,0-3.87,0-5.26-.13h-1.38a.67.67,0,0,1-.41.13s.55,0,1.8-.13,3,0,5.11-.14c4.57,0,10.79-.14,18.12-.14h.28v7.47a12.3,12.3,0,0,1-2.08,7.47,13.48,13.48,0,0,1-6.36,5.11,17,17,0,0,1-3.87.83,8.63,8.63,0,0,1-3.74-.41,12.64,12.64,0,0,1-5.94-3.32,14.28,14.28,0,0,1-3.18-5.12,12.58,12.58,0,0,1-.56-4.84,33.22,33.22,0,0,1,.14-3.73,12.27,12.27,0,0,1,.14-2.35C408,103.45,408,103.17,408,103.31Z" transform="translate(-1.41 -15.29)"/></g><g id="Group_1426" data-name="Group 1426"><path id="Path_29051" data-name="Path 29051" class="cls-20" d="M374.13,102.48v.83a15.37,15.37,0,0,0,.14,2.35c0,1.2,0,2.4.13,3.6a15,15,0,0,0,.69,4.7,12.42,12.42,0,0,0,3.05,4.84,13.42,13.42,0,0,0,5.67,3.18,10.15,10.15,0,0,0,3.6.28,8.19,8.19,0,0,0,3.6-.83,11.94,11.94,0,0,0,5.94-4.84,12.15,12.15,0,0,0,1.94-7v-7.2l.28.28c-7.2,0-13.42-.14-18-.14-2.21,0-3.87,0-5.26-.13h-1.38c-.28.27-.41.13-.41.13s.55,0,1.8-.13,3,0,5.11-.14c4.57,0,10.79-.14,18.12-.14h.28v7.47a12.3,12.3,0,0,1-2.08,7.47,13.48,13.48,0,0,1-6.36,5.11,17,17,0,0,1-3.87.83,8.63,8.63,0,0,1-3.74-.41,12.64,12.64,0,0,1-5.94-3.32,14.28,14.28,0,0,1-3.18-5.12,12.39,12.39,0,0,1-.56-4.84,33.22,33.22,0,0,1,.14-3.73,12.27,12.27,0,0,1,.14-2.35A2.4,2.4,0,0,0,374.13,102.48Z" transform="translate(-1.41 -15.29)"/></g><g id="Group_1427" data-name="Group 1427"><ellipse id="Ellipse_374" data-name="Ellipse 374" class="cls-20" cx="402.17" cy="88.99" rx="4.84" ry="0.41"/></g><g id="Group_1428" data-name="Group 1428"><ellipse id="Ellipse_375" data-name="Ellipse 375" class="cls-20" cx="360.86" cy="104.41" rx="13.28" ry="0.42" transform="matrix(1, 0, 0, 1, -1.73, -14.2)"/></g></g><path id="Path_29057" data-name="Path 29057" class="cls-20" d="M496.1,266.29,450.32,379.82H367.49v5.12H614.06l50.33-118.65Z" transform="translate(-1.41 -15.29)"/><ellipse id="Ellipse_377" data-name="Ellipse 377" class="cls-24" cx="558.45" cy="331.14" rx="10.79" ry="8.16" transform="translate(82.78 759.24) rotate(-73.74)"/><rect class="cls-25" y="368.15" width="766.97" height="2"/></svg>